<svg xmlns="http://www.w3.org/2000/svg" style="display:none" aria-hidden="true">
  <defs>
    <symbol id="lucide-arrow-up" viewBox="0 0 24 24"><path d="M12 19V5"/><path d="m5 12 7-7 7 7"/></symbol>
    <symbol id="lucide-arrow-down" viewBox="0 0 24 24"><path d="M12 5v14"/><path d="m19 12-7 7-7-7"/></symbol>
    <symbol id="lucide-arrow-left" viewBox="0 0 24 24"><path d="m12 19-7-7 7-7"/><path d="M19 12H5"/></symbol>
    <symbol id="lucide-home" viewBox="0 0 24 24"><path d="m3 9 9-7 9 7v11a2 2 0 0 1-2 2H5a2 2 0 0 1-2-2z"/><polyline points="9 22 9 12 15 12 15 22"/></symbol>
    <symbol id="lucide-music" viewBox="0 0 24 24"><path d="M9 18V5l12-2v13"/><circle cx="6" cy="18" r="3"/><circle cx="18" cy="16" r="3"/></symbol>
    <symbol id="lucide-type" viewBox="0 0 24 24"><polyline points="4 7 4 4 20 4 20 7"/><line x1="9" x2="15" y1="20" y2="20"/><line x1="12" x2="12" y1="4" y2="20"/></symbol>
    <symbol id="lucide-help-circle" viewBox="0 0 24 24"><circle cx="12" cy="12" r="10"/><path d="M9.09 9a3 3 0 0 1 5.83 1c0 2-3 3-3 3"/><line x1="12" x2="12.01" y1="17" y2="17"/></symbol>
    <symbol id="lucide-search" viewBox="0 0 24 24"><circle cx="11" cy="11" r="8"/><path d="m21 21-4.3-4.3"/></symbol>
    <symbol id="lucide-menu" viewBox="0 0 24 24"><line x1="4" x2="20" y1="12" y2="12"/><line x1="4" x2="20" y1="6" y2="6"/><line x1="4" x2="20" y1="18" y2="18"/></symbol>
    <symbol id="lucide-x" viewBox="0 0 24 24"><path d="M18 6 6 18"/><path d="m6 6 12 12"/></symbol>
    <symbol id="lucide-sun" viewBox="0 0 24 24"><circle cx="12" cy="12" r="4"/><path d="M12 2v2"/><path d="M12 20v2"/><path d="m4.93 4.93 1.41 1.41"/><path d="m17.66 17.66 1.41 1.41"/><path d="M2 12h2"/><path d="M20 12h2"/><path d="m6.34 17.66-1.41 1.41"/><path d="m19.07 4.93-1.41 1.41"/></symbol>
    <symbol id="lucide-moon" viewBox="0 0 24 24"><path d="M12 3a6 6 0 0 0 9 9 9 9 0 1 1-9-9Z"/></symbol>
    <symbol id="lucide-star" viewBox="0 0 24 24"><polygon points="12 2 15.09 8.26 22 9.27 17 14.14 18.18 21.02 12 17.77 5.82 21.02 7 14.14 2 9.27 8.91 8.26 12 2"/></symbol>
    <symbol id="lucide-share-2" viewBox="0 0 24 24"><circle cx="18" cy="5" r="3"/><circle cx="6" cy="12" r="3"/><circle cx="18" cy="19" r="3"/><line x1="8.59" x2="15.42" y1="13.51" y2="17.49"/><line x1="15.41" x2="8.59" y1="6.51" y2="10.49"/></symbol>
    <symbol id="lucide-chevron-left" viewBox="0 0 24 24"><path d="m15 18-6-6 6-6"/></symbol>
    <symbol id="lucide-expand" viewBox="0 0 24 24"><path d="m21 21-6-6m6 6v-4.8m0 4.8h-4.8"/><path d="M3 16.2V21m0 0h4.8M3 21l6-6"/><path d="M21 7.8V3m0 0h-4.8M21 3l-6 6"/><path d="M3 7.8V3m0 0h4.8M3 3l6 6"/></symbol>
    <symbol id="lucide-tag" viewBox="0 0 24 24"><path d="M20.59 13.41l-7.17 7.17a2 2 0 0 1-2.83 0L2 12V2h10l8.59 8.59a2 2 0 0 1 0 2.82z"/><line x1="7" x2="7.01" y1="7" y2="7"/></symbol>
    <symbol id="lucide-tags" viewBox="0 0 24 24"><path d="M9 5H2v7l6.29 6.29c.94.94 2.48.94 3.42 0l3.58-3.58c.94-.94.94-2.48 0-3.42L9 5Z"/><path d="M6 9.01V9"/><path d="m15 5 6.3 6.3a2.4 2.4 0 0 1 0 3.4L17 19"/></symbol>
    <symbol id="lucide-external-link" viewBox="0 0 24 24"><path d="M18 13v6a2 2 0 0 1-2 2H5a2 2 0 0 1-2-2V8a2 2 0 0 1 2-2h6"/><polyline points="15 3 21 3 21 9"/><line x1="10" x2="21" y1="14" y2="3"/></symbol>
    <symbol id="lucide-link" viewBox="0 0 24 24"><path d="M10 13a5 5 0 0 0 7.54.54l3-3a5 5 0 0 0-7.07-7.07l-1.72 1.71"/><path d="M14 11a5 5 0 0 0-7.54-.54l-3 3a5 5 0 0 0 7.07 7.07l1.71-1.71"/></symbol>
    <symbol id="lucide-book" viewBox="0 0 24 24"><path d="M4 19.5v-15A2.5 2.5 0 0 1 6.5 2H20v20H6.5a2.5 2.5 0 0 1 0-5H20"/></symbol>
    <symbol id="lucide-camera" viewBox="0 0 24 24"><path d="M14.5 4h-5L7 7H4a2 2 0 0 0-2 2v9a2 2 0 0 0 2 2h16a2 2 0 0 0 2-2V9a2 2 0 0 0-2-2h-3l-2.5-3z"/><circle cx="12" cy="13" r="3"/></symbol>
    <symbol id="lucide-calendar" viewBox="0 0 24 24"><rect width="18" height="18" x="3" y="4" rx="2" ry="2"/><line x1="16" x2="16" y1="2" y2="6"/><line x1="8" x2="8" y1="2" y2="6"/><line x1="3" x2="21" y1="10" y2="10"/></symbol>
    <symbol id="lucide-plus" viewBox="0 0 24 24"><path d="M5 12h14"/><path d="M12 5v14"/></symbol>
    <symbol id="lucide-pencil" viewBox="0 0 24 24"><path d="M21.174 6.812a1 1 0 0 0-3.986-3.987L3.842 16.174a2 2 0 0 0-.5.83l-1.321 4.352a.5.5 0 0 0 .623.622l4.353-1.32a2 2 0 0 0 .83-.497z"/></symbol>
  </defs>
</svg>
